<svg xmlns="http://www.w3.org/2000/svg" viewBox="0 0 100 100">
  <!-- Outer navy background -->
  <circle cx="50" cy="50" r="49" fill="#1B3A6B"/>

  <!-- Gold outer ring base (r=40 to r=47) -->
  <circle cx="50" cy="50" r="47" fill="#D4AF37"/>

  <!-- Navy inner mask creates the gold ring band -->
  <circle cx="50" cy="50" r="40" fill="#1B3A6B"/>

  <!-- Navy scallop notches cutting into gold ring (20 circles, center r=43.5, radius=3.5) -->
  <circle cx="93.5" cy="50.0" r="3.5" fill="#1B3A6B"/>
  <circle cx="91.4" cy="63.4" r="3.5" fill="#1B3A6B"/>
  <circle cx="85.2" cy="75.6" r="3.5" fill="#1B3A6B"/>
  <circle cx="75.6" cy="85.2" r="3.5" fill="#1B3A6B"/>
  <circle cx="63.4" cy="91.4" r="3.5" fill="#1B3A6B"/>
  <circle cx="50.0" cy="93.5" r="3.5" fill="#1B3A6B"/>
  <circle cx="36.6" cy="91.4" r="3.5" fill="#1B3A6B"/>
  <circle cx="24.4" cy="85.2" r="3.5" fill="#1B3A6B"/>
  <circle cx="14.8" cy="75.6" r="3.5" fill="#1B3A6B"/>
  <circle cx="8.6"  cy="63.4" r="3.5" fill="#1B3A6B"/>
  <circle cx="6.5"  cy="50.0" r="3.5" fill="#1B3A6B"/>
  <circle cx="8.6"  cy="36.6" r="3.5" fill="#1B3A6B"/>
  <circle cx="14.8" cy="24.4" r="3.5" fill="#1B3A6B"/>
  <circle cx="24.4" cy="14.8" r="3.5" fill="#1B3A6B"/>
  <circle cx="36.6" cy="8.6"  r="3.5" fill="#1B3A6B"/>
  <circle cx="50.0" cy="6.5"  r="3.5" fill="#1B3A6B"/>
  <circle cx="63.4" cy="8.6"  r="3.5" fill="#1B3A6B"/>
  <circle cx="75.6" cy="14.8" r="3.5" fill="#1B3A6B"/>
  <circle cx="85.2" cy="24.4" r="3.5" fill="#1B3A6B"/>
  <circle cx="91.4" cy="36.6" r="3.5" fill="#1B3A6B"/>

  <!-- Gold inner panel -->
  <circle cx="50" cy="50" r="36" fill="#D4AF37"/>

  <!-- Navy M -->
  <text x="50" y="50"
        font-family="Georgia, 'Times New Roman', serif"
        font-size="32"
        font-weight="bold"
        fill="#1B3A6B"
        text-anchor="middle"
        dominant-baseline="central">M</text>
</svg>
